# xmcd CD database file
#
# Track frame offsets:
#	150
#	53312
#	116232
#	170270
#	227902
#
# Disc length: 3701 seconds
#
# Revision: 3
# Processed by: cddbd v1.5.2PL0 Copyright (c) Steve Scherf et al.
# Submitted via: CDex 1.70beta3
#
DISCID=360e7305
DTITLE=[92年度 3年B組]　新井 聖美(CV:鶴 ひろみ)　加藤 美夏(CV:島方 淳子)　志村 まみ(CV:金丸 日向子)　高城 麗子(CV:冬馬 由美)　中本 静(CV.久川 綾)　　[94年度 3年B組]　石橋 美佐子(CV:南場 千絵
DTITLE=子)　犬塚 さおり(CV:萩森 侚子)　シンディ桜井(CV:浦和 めぐみ)　谷 由利佳(CV:鈴木 沙織)　安田 舞奈(CV:中島 千里) - 「卒業」&「卒業 II」卒業ガールズ全員集合！
DYEAR=1994
DGENRE=Game
TTITLE0=第1話『プロローグ／ラジオだよ全員集合』
TTITLE1=第2話『第2夜／大人を導く女子高生』
TTITLE2=第3話『第3夜／無責任!名誉挽回大作戦』
TTITLE3=第4話『最終夜／92年度VS94年度』
TTITLE4=第5話『特別偏／夢の10年後』
EXTD=YEAR: 1994
EXTT0=
EXTT1=
EXTT2=
EXTT3=
EXTT4=
PLAYORDER=
